<svg height="480pt" viewBox="-1 0 480 480.918" width="480pt" xmlns="http://www.w3.org/2000/svg"><path d="m239.398438 476.917969h-223.902344c-6.09375 0-11.035156-4.941407-11.035156-11.039063v-261.289062c0-6.097656 4.941406-11.039063 11.035156-11.039063h223.902344zm0 0" fill="#4671c6"/><path d="m463.300781 476.917969h-223.902343v-283.367188h223.902343c6.09375 0 11.035157 4.941407 11.035157 11.039063v261.289062c0 6.097656-4.941407 11.039063-11.035157 11.039063zm0 0" fill="#4671c6"/><path d="m239.398438 480.917969h-223.902344c-8.292969 0-15.035156-6.746094-15.035156-15.039063v-261.289062c0-8.292969 6.742187-15.039063 15.035156-15.039063h223.902344c2.207031 0 4 1.792969 4 4v283.363281c0 2.210938-1.792969 4.003907-4 4.003907zm-223.902344-283.367188c-3.878906 0-7.035156 3.15625-7.035156 7.039063v261.289062c0 3.878906 3.15625 7.035156 7.035156 7.035156h219.902344v-275.363281zm0 0" fill="#3762cc"/><path d="m463.300781 480.917969h-223.902343c-2.207032 0-4-1.792969-4-4v-283.367188c0-2.207031 1.792968-4 4-4h223.902343c8.292969 0 15.039063 6.746094 15.039063 15.039063v261.289062c-.003906 8.292969-6.75 15.039063-15.039063 15.039063zm-219.902343-8h219.902343c3.878907 0 7.035157-3.15625 7.035157-7.039063v-261.289062c0-3.882813-3.15625-7.039063-7.035157-7.039063h-219.902343zm0 0" fill="#3762cc"/><path d="m28.324219 435.386719s216.304687-85.375 211.101562 21.75h-211.101562zm0 0" fill="#e0ebfc"/><path d="m239.257812 211.6875v-3.175781h-.394531c-12.566406-87.058594-210.542969-8.933594-210.542969-8.933594v235.820313s202.761719-80.023438 210.9375 12.109374v-226.179687h.164063c.167969-3.40625.105469-6.613281-.164063-9.640625zm0 0" fill="#e0ebfc"/><path d="m450.710938 435.386719v21.75h-211.101563c-5.203125-107.125 211.101563-21.75 211.101563-21.75zm0 0" fill="#e0ebfc"/><path d="m239.777344 211.6875v-3.175781h.390625c12.570312-87.058594 210.546875-8.933594 210.546875-8.933594v235.820313s-202.761719-80.023438-210.9375 12.109374v-226.179687h-.167969c-.164063-3.40625-.101563-6.613281.167969-9.640625zm0 0" fill="#e0ebfc"/><g fill="#b9befc"><path d="m57.964844 252.957031c-2.917969 0-5.644532-1.808593-6.652344-4.6875-1.269531-3.636719.679688-7.605469 4.351562-8.863281 51.308594-17.578125 120.816407-34.496094 160.566407-15.289062 3.496093 1.6875 4.941406 5.859374 3.238281 9.316406-1.703125 3.457031-5.914062 4.890625-9.40625 3.207031-37.28125-18.015625-109.859375 2.25-149.800781 15.933594-.761719.261719-1.535157.382812-2.296875.382812zm0 0"/><path d="m57.964844 294.636719c-2.917969 0-5.644532-1.808594-6.652344-4.6875-1.269531-3.636719.679688-7.605469 4.351562-8.859375 51.308594-17.578125 120.816407-34.496094 160.566407-15.292969 3.496093 1.6875 4.941406 5.859375 3.238281 9.316406s-5.914062 4.894531-9.40625 3.207031c-37.28125-18.015624-109.859375 2.25-149.800781 15.9375-.761719.257813-1.535157.378907-2.296875.378907zm0 0"/><path d="m57.964844 336.316406c-2.917969 0-5.644532-1.804687-6.652344-4.6875-1.269531-3.636718.679688-7.605468 4.351562-8.859375 51.308594-17.578125 120.816407-34.5 160.566407-15.292969 3.496093 1.6875 4.941406 5.859376 3.238281 9.316407-1.703125 3.453125-5.914062 4.890625-9.40625 3.203125-37.28125-18.011719-109.859375 2.253906-149.800781 15.9375-.761719.261718-1.535157.382812-2.296875.382812zm0 0"/><path d="m57.964844 377.996094c-2.917969 0-5.644532-1.804688-6.652344-4.6875-1.269531-3.636719.679688-7.605469 4.351562-8.859375 51.308594-17.578125 120.816407-34.496094 160.566407-15.292969 3.496093 1.691406 4.941406 5.859375 3.238281 9.316406-1.703125 3.457032-5.914062 4.894532-9.40625 3.207032-37.28125-18.015626-109.859375 2.253906-149.800781 15.9375-.761719.257812-1.535157.378906-2.296875.378906zm0 0"/><path d="m421.410156 252.957031c-.761718 0-1.542968-.121093-2.300781-.386719-39.945313-13.679687-112.519531-33.945312-149.796875-15.933593-3.496094 1.683593-7.707031.25-9.410156-3.207031-1.703125-3.457032-.253906-7.628907 3.238281-9.316407 39.753906-19.207031 109.261719-2.285156 160.570313 15.289063 3.671874 1.257812 5.617187 5.226562 4.347656 8.863281-1.007813 2.882813-3.734375 4.691406-6.648438 4.691406zm0 0"/><path d="m421.410156 294.636719c-.761718 0-1.542968-.121094-2.300781-.382813-39.945313-13.683594-112.519531-33.949218-149.796875-15.9375-3.496094 1.6875-7.707031.25-9.410156-3.207031s-.253906-7.628906 3.238281-9.316406c39.753906-19.203125 109.261719-2.285157 160.570313 15.292969 3.671874 1.257812 5.617187 5.222656 4.347656 8.859374-1.007813 2.882813-3.734375 4.691407-6.648438 4.691407zm0 0"/><path d="m421.410156 336.316406c-.761718 0-1.542968-.121094-2.300781-.382812-39.941406-13.6875-112.515625-33.953125-149.796875-15.9375-3.496094 1.6875-7.707031.25-9.410156-3.207032-1.703125-3.457031-.253906-7.628906 3.238281-9.316406 39.75-19.203125 109.257813-2.285156 160.570313 15.292969 3.671874 1.257813 5.617187 5.226563 4.347656 8.859375-1.007813 2.886719-3.734375 4.691406-6.648438 4.691406zm0 0"/><path d="m421.410156 377.996094c-.761718 0-1.542968-.121094-2.300781-.382813-39.945313-13.683593-112.519531-33.949219-149.796875-15.9375-3.496094 1.6875-7.707031.253907-9.410156-3.207031-1.703125-3.457031-.253906-7.625 3.238281-9.316406 39.753906-19.203125 109.261719-2.285156 160.570313 15.292968 3.671874 1.257813 5.617187 5.226563 4.347656 8.859376-1.007813 2.882812-3.734375 4.691406-6.648438 4.691406zm0 0"/></g><path d="m239.425781 461.132812h-211.101562c-2.210938 0-4-1.789062-4-4v-21.75c0-1.640624 1.003906-3.117187 2.53125-3.71875 5.914062-2.335937 145.457031-56.75 197.371093-19.550781 13.714844 9.828125 20.175782 25.039063 19.195313 45.214844-.105469 2.132813-1.863281 3.804687-3.996094 3.804687zm-207.101562-8h203.195312c-.039062-15.554687-5.277343-26.867187-15.949219-34.515624-44.773437-32.085938-168 12.28125-187.246093 19.519531zm0 0" fill="#3762cc"/><path d="m239.253906 451.507812c-2.058594 0-3.796875-1.574218-3.980468-3.644531-1.242188-13.984375-7.179688-24.074219-18.160157-30.855469-50.585937-31.238281-185.960937 21.578126-187.324219 22.113282-1.226562.488281-2.621093.332031-3.71875-.414063-1.09375-.742187-1.75-1.980469-1.75-3.304687v-235.824219c0-1.640625 1.003907-3.117187 2.53125-3.71875 5.628907-2.21875 138.40625-54 193.175782-22.222656 12.441406 7.21875 20.011718 18.183593 22.527344 32.609375.445312.644531.703124 1.425781.703124 2.265625v3c.273438 3.203125.328126 6.566406.164063 10.011719-.019531.328124-.074219.648437-.164063.949218v225.035156c0 2.140626-1.683593 3.902344-3.824218 3.996094-.058594.003906-.117188.003906-.179688.003906zm-206.929687-249.171874v227.261718c26.65625-9.917968 140.464843-49.363281 188.992187-19.398437 5.757813 3.558593 10.414063 7.953125 13.941406 13.167969v-202.039063c0-.457031.078126-.894531.21875-1.304687.09375-2.75.023438-5.433594-.203124-7.984376-.007813-.117187-.015626-.234374-.015626-.351562v-1.449219c-.167968-.359375-.289062-.746093-.347656-1.15625-1.863281-12.898437-8.042968-22.230469-18.890625-28.527343-47.496093-27.558594-164.941406 14.726562-183.695312 21.78125zm207.101562 18.992187h.019531zm0 0" fill="#3762cc"/><path d="m450.710938 461.132812h-211.101563c-2.132813 0-3.890625-1.671874-3.996094-3.804687-.976562-20.175781 5.476563-35.390625 19.195313-45.214844 51.921875-37.195312 191.457031 17.214844 197.371094 19.550781 1.53125.601563 2.535156 2.078126 2.535156 3.71875v21.75c-.003906 2.210938-1.792969 4-4.003906 4zm-207.195313-8h203.199219v-14.996093c-19.246094-7.234375-142.46875-51.609375-187.246094-19.519531-10.675781 7.648437-15.914062 18.964843-15.953125 34.515624zm0 0" fill="#3762cc"/><path d="m239.777344 451.507812c-.058594 0-.117188 0-.179688-.003906-2.136718-.09375-3.824218-1.855468-3.824218-3.996094v-225.070312c-.089844-.292969-.144532-.597656-.160157-.914062-.167969-3.449219-.113281-6.8125.160157-10.011719v-3c0-.839844.261718-1.621094.707031-2.265625 2.511719-14.425782 10.085937-25.390625 22.523437-32.609375 54.769532-31.785157 187.546875 20 193.175782 22.222656 1.53125.601563 2.535156 2.078125 2.535156 3.71875v235.820313c0 1.324218-.65625 2.5625-1.75 3.308593-1.101563.746094-2.488282.902344-3.71875.414063-1.363282-.539063-136.746094-53.351563-187.324219-22.117188-10.976563 6.78125-16.917969 16.875-18.160156 30.855469-.183594 2.074219-1.921875 3.648437-3.984375 3.648437zm67.75-52.351562c53.179687 0 119.628906 23.164062 139.1875 30.441406v-227.261718c-18.746094-7.050782-136.195313-49.34375-183.699219-21.777344-10.847656 6.296875-17.027344 15.625-18.886719 28.527344-.058594.410156-.179687.796874-.351562 1.15625v1.445312c0 .117188-.007813.238281-.015625.355469-.230469 2.566406-.292969 5.265625-.199219 8.042969.136719.390624.210938.808593.210938 1.242187v202.039063c3.53125-5.210938 8.1875-9.609376 13.945312-13.167969 12.929688-7.984375 30.496094-11.042969 49.808594-11.042969zm-67.75-187.46875h.019531zm0 0" fill="#3762cc"/><path d="m297.789062 206.289062c12.183594-13.308593 19.625-31.035156 19.625-50.5 0-41.320312-33.5-74.820312-74.820312-74.820312s-74.816406 33.5-74.816406 74.820312c0 19.464844 7.4375 37.191407 19.625 50.5h-.195313c12.375 14.652344 19.851563 33.566407 19.851563 54.246094 0 1.253906-.042969 2.5-.09375 3.738282h71.265625c-.054688-1.242188-.09375-2.484376-.09375-3.738282 0-20.679687 7.472656-39.59375 19.847656-54.246094zm0 0" fill="#ffea94"/><path d="m296.289062 78.121094.308594.308594c4.296875 4.296874 11.265625 4.296874 15.5625 0l24.117188-24.117188c4.296875-4.296875 4.296875-11.265625 0-15.566406l-.308594-.304688c-4.296875-4.300781-11.265625-4.300781-15.5625 0l-24.117188 24.113282c-4.296874 4.300781-4.296874 11.265624 0 15.566406zm0 0" fill="#ffe164"/><path d="m241.109375 56.265625h-.40625c-6.085937 0-11.019531-4.9375-11.019531-11.023437v-34.222657c0-6.085937 4.933594-11.019531 11.019531-11.019531h.40625c6.085937 0 11.019531 4.933594 11.019531 11.019531v34.222657c0 6.085937-4.933594 11.023437-11.019531 11.023437zm0 0" fill="#ffe164"/><path d="m186.457031 78.121094-.308593.308594c-4.296876 4.296874-11.265626 4.296874-15.5625 0l-24.117188-24.117188c-4.296875-4.296875-4.296875-11.265625 0-15.566406l.308594-.304688c4.296875-4.300781 11.265625-4.300781 15.5625 0l24.117187 24.113282c4.296875 4.300781 4.296875 11.265624 0 15.566406zm0 0" fill="#ffe164"/><path d="m321.335938 110.648438v-.433594c0-6.078125 4.925781-11.003906 11.003906-11.003906h34.101562c6.078125 0 11.003906 4.925781 11.003906 11.003906v.433594c0 6.078124-4.925781 11.003906-11.003906 11.003906h-34.101562c-6.078125 0-11.003906-4.925782-11.003906-11.003906zm0 0" fill="#ffdc85"/><path d="m104.359375 110.648438v-.433594c0-6.078125 4.929687-11.003906 11.003906-11.003906h34.105469c6.078125 0 11.003906 4.925781 11.003906 11.003906v.433594c0 6.078124-4.925781 11.003906-11.003906 11.003906h-34.101562c-6.078126 0-11.007813-4.925782-11.007813-11.003906zm0 0" fill="#ffe164"/><path d="m279.648438 286.71875h-74.105469c-2.265625 0-4.097657-1.832031-4.097657-4.097656v-14.25c0-2.261719 1.832032-4.097656 4.097657-4.097656h74.105469c2.261718 0 4.097656 1.835937 4.097656 4.097656v14.25c0 2.265625-1.835938 4.097656-4.097656 4.097656zm0 0" fill="#6bdddd"/><path d="m273.523438 309.164062h-59.988282c-3.574218 0-6.476562-2.898437-6.476562-6.476562v-15.96875h72.945312v15.96875c0 3.578125-2.902344 6.476562-6.480468 6.476562zm0 0" fill="#6bdddd"/><path d="m250.078125 339.09375h-14.964844c-12.394531 0-22.445312-10.050781-22.445312-22.445312v-7.484376h59.851562v7.484376c.003907 12.394531-10.046875 22.445312-22.441406 22.445312zm0 0" fill="#6bdddd"/><path d="m277.101562 267.148438h-71.265624c-1.09375 0-2.136719-.445313-2.890626-1.234376-.753906-.789062-1.15625-1.851562-1.105468-2.941406.050781-1.183594.089844-2.371094.089844-3.566406 0-18.878906-6.714844-37.226562-18.90625-51.664062-.207032-.246094-.378907-.507813-.519532-.789063-12.8125-14.433594-19.855468-32.957031-19.855468-52.292969 0-43.460937 35.359374-78.816406 78.820312-78.816406 43.457031 0 78.816406 35.355469 78.816406 78.816406 0 19.335938-7.042968 37.859375-19.855468 52.292969-.140626.28125-.3125.542969-.519532.789063-12.191406 14.4375-18.90625 32.785156-18.90625 51.664062 0 1.195312.042969 2.382812.09375 3.566406.046875 1.089844-.351562 2.152344-1.105468 2.941406-.753907.789063-1.796876 1.234376-2.890626 1.234376zm-67.171874-8h63.078124c.058594-20.285157 7.164063-39.996094 20.042969-55.664063.160157-.367187.378907-.714844.660157-1.023437 11.976562-13.082032 18.574218-30.058594 18.574218-47.800782 0-39.046875-31.769531-70.816406-70.816406-70.816406-39.050781 0-70.820312 31.769531-70.820312 70.816406 0 17.742188 6.597656 34.71875 18.574218 47.800782.292969.324218.53125.683593.703125 1.070312 12.855469 15.660156 19.941407 35.351562 20.003907 55.617188zm0 0" fill="#3762cc"/><path d="m279.648438 290.71875h-74.105469c-4.464844 0-8.097657-3.628906-8.097657-8.097656v-14.25c0-4.464844 3.632813-8.097656 8.097657-8.097656h74.105469c4.460937 0 8.097656 3.632812 8.097656 8.097656v14.25c0 4.46875-3.632813 8.097656-8.097656 8.097656zm-74.105469-22.445312-.097657 14.347656 74.203126.097656c.050781 0 .097656-.042969.097656-.097656v-14.25zm0 0" fill="#3762cc"/><path d="m273.523438 313.164062h-59.988282c-5.777344 0-10.476562-4.699218-10.476562-10.476562v-15.96875c0-2.207031 1.789062-4 4-4h72.945312c2.210938 0 4 1.792969 4 4v15.96875c0 5.777344-4.699218 10.476562-10.480468 10.476562zm-62.464844-22.445312v11.96875c0 1.367188 1.109375 2.476562 2.476562 2.476562h59.988282c1.371093 0 2.480468-1.109374 2.480468-2.476562v-11.96875zm0 0" fill="#3762cc"/><path d="m250.078125 343.09375h-14.964844c-14.582031 0-26.445312-11.867188-26.445312-26.449219v-7.480469c0-2.207031 1.792969-4 4-4h59.851562c2.210938 0 4 1.792969 4 4v7.480469c.003907 14.585938-11.859375 26.449219-26.441406 26.449219zm-33.410156-29.929688v3.484376c0 10.167968 8.273437 18.445312 18.445312 18.445312h14.964844c10.167969 0 18.445313-8.273438 18.445313-18.445312v-3.484376zm0 0" fill="#3762cc"/><path d="m229.671875 238.097656c-1.726563 0-3.480469-.449218-5.074219-1.390625-4.753906-2.8125-6.335937-8.941406-3.523437-13.695312l22.109375-37.4375h-22.113282c-5 0-9.648437-2.691407-12.140624-7.027344-2.488282-4.332031-2.46875-9.707031.046874-14.027344l30.652344-52.515625c2.78125-4.769531 8.90625-6.378906 13.679688-3.597656 4.769531 2.785156 6.375 8.90625 3.59375 13.679688l-25.382813 43.488281h22.175781c5.019532 0 9.675782 2.707031 12.160157 7.0625s2.445312 9.746093-.109375 14.0625l-27.457032 46.480469c-1.863281 3.160156-5.195312 4.917968-8.617187 4.917968zm0 0" fill="#f9a7a7"/></svg>